<svg xmlns="http://www.w3.org/2000/svg" style="display: none;">
  
    <symbol id="icon-dashboard-svgrepo-com" viewBox="0 0 512 512">
      <path d="m64 277l171 0 0-213-171 0z m0 171l171 0 0-128-171 0z m213 0l171 0 0-213-171 0z m0-384l0 128 171 0 0-128z"/>
    </symbol>
  
    <symbol id="icon-graph-bar" viewBox="0 0 512 512">
      <path d="m236 308l-73 0c-4 0-7 4-7 8l0 112c0 4 3 8 7 8l73 0c4 0 8-4 8-8l0-112c0-5-4-8-8-8z m113-232l-73 0c-4 0-8 4-8 8l0 344c0 4 4 8 8 8l73 0c4 0 7-4 7-8l0-344c0-4-3-8-7-8z m113 105l-72 0c-5 0-8 3-8 7l0 240c0 4 3 8 8 8l72 0c4 0 8-4 8-8l0-240c0-4-4-7-8-7z m-340 0l-72 0c-4 0-8 3-8 7l0 240c0 4 4 8 8 8l72 0c5 0 8-4 8-8l0-240c0-4-3-7-8-7z"/>
    </symbol>
  
    <symbol id="icon-calendar-o" viewBox="0 0 512 512">
      <path d="m55 475l402 0 0-292-402 0z m110-347l0-82c0-3-1-5-3-7-2-2-4-2-7-2l-18 0c-3 0-5 0-6 2-2 2-3 4-3 7l0 82c0 3 1 5 3 7 1 1 3 2 6 2l18 0c3 0 5-1 7-2 2-2 3-4 3-7z m219 0l0-82c0-3-1-5-3-7-1-2-3-2-6-2l-18 0c-3 0-5 0-7 2-2 2-3 4-3 7l0 82c0 3 1 5 3 7 2 1 4 2 7 2l18 0c3 0 5-1 6-2 2-2 3-4 3-7z m110-18l0 365c0 10-4 19-11 26-7 7-16 11-26 11l-402 0c-10 0-19-4-26-11-7-7-11-16-11-26l0-365c0-10 4-19 11-26 7-7 16-11 26-11l36 0 0-27c0-13 5-24 14-33 9-9 20-13 32-13l18 0c13 0 24 4 33 13 9 9 13 20 13 33l0 27 110 0 0-27c0-13 4-24 13-33 9-9 20-13 33-13l18 0c12 0 23 4 32 13 9 9 14 20 14 33l0 27 36 0c10 0 19 4 26 11 7 7 11 16 11 26z"/>
    </symbol>
  	<symbol id="icon-message" viewBox="0 0 512 512">
			<path d="M20 3H4C2.89543 3 2 3.89543 2 5V16C2 17.1046 2.89543 18 4 18H4.5C5.05228 18 5.5 18.4477 5.5 19V21.5052C5.5 22.1441 6.21212 22.5253 6.74376 22.1708L11.4885 19.0077C12.4741 18.3506 13.6321 18 14.8167 18H20C21.1046 18 22 17.1046 22 16V5C22 3.89543 21.1046 3 20 3Z" />
		</symbol>
</svg>
